# xmcd
#
# Track frame offsets: 
#        150
#        14976
#        31269
#        49502
#        64655
#        86468
#        99055
#        117263
#        133644
#        151390
#        163691
#        180734
#        192401
#
# Disc length: 2856 seconds
#
# Revision: 0
# Processed by: cddbd v1.5.2PL0 Copyright (c) Steve Scherf et al.
# Submitted via: ExactAudioCopy v1.0b3
#
DISCID=a40b260d
DTITLE=Aaron Neville - I Know I've Been Changed [Bonus Track]
DYEAR=2010
DGENRE=R&B
TTITLE0=Stand By Me
TTITLE1=I Know I've Been Changed
TTITLE2=I Done Made Up My Mind
TTITLE3=I Am A Pilgrim
TTITLE4=Don't Let Him Ride
TTITLE5=You've Got To Move
TTITLE6=Oh Freedom
TTITLE7=Tell Me What Kind Of Man Jesus Is
TTITLE8=I Want To Live So God Can Use Me
TTITLE9=Meetin' At The Building
TTITLE10=I'm So Glad (Trouble Don't Last)
TTITLE11=There's A God Somewhere
TTITLE12=Touch The Hem Of His Garment
EXTD=
EXTT0=
EXTT1=
EXTT2=
EXTT3=
EXTT4=
EXTT5=
EXTT6=
EXTT7=
EXTT8=
EXTT9=
EXTT10=
EXTT11=
EXTT12=
PLAYORDER=
